<?xml version="1.0" encoding="UTF-8" standalone="no"?>
<svg
   xmlns:dc="http://purl.org/dc/elements/1.1/"
   xmlns:cc="http://creativecommons.org/ns#"
   xmlns:rdf="http://www.w3.org/1999/02/22-rdf-syntax-ns#"
   xmlns:svg="http://www.w3.org/2000/svg"
   xmlns="http://www.w3.org/2000/svg"
   id="svg353"
   height="190.24001mm"
   width="254.13mm"
   version="1.0">
  <metadata
     id="metadata357">
    <rdf:RDF>
      <cc:Work
         rdf:about="">
        <dc:format>image/svg+xml</dc:format>
        <dc:type
           rdf:resource="http://purl.org/dc/dcmitype/StillImage" />
      </cc:Work>
    </rdf:RDF>
  </metadata>
  <defs
     id="defs3">
    <pattern
       y="0"
       x="0"
       height="6"
       width="6"
       patternUnits="userSpaceOnUse"
       id="EMFhbasepattern" />
  </defs>
  <path
     id="path5"
     d="  M 0.079951545,0.079951545   L 0.079951545,719.64385   L 959.49849,719.64385   L 959.49849,0.079951545   L 0.079951545,0.079951545   z "
     style="fill:#ffffff;fill-rule:evenodd;fill-opacity:1;stroke:none;" />
  <path
     id="path7"
     d="  M 30.061781,67.559055   L 30.061781,667.19564   L 907.05027,667.19564   L 907.05027,67.559055   L 30.061781,67.559055   z "
     style="fill:#ffffff;fill-rule:evenodd;fill-opacity:1;stroke:none;" />
  <path
     id="path9"
     d="  M 325.52271,597.55784   C 325.52271,597.55784 870.51242,597.47789 870.51242,597.47789   C 870.51242,597.47789 872.07147,593.92005 874.03028,589.32283   C 875.50939,585.88492 877.34827,581.32768 879.22714,575.89098   L 879.22714,575.89098   C 879.54694,574.85161 879.90672,573.81224 880.26651,572.73289   C 880.74621,571.21381 881.2659,569.61478 881.74561,567.97577   C 881.94549,567.41611 882.10539,566.7765 882.30527,566.17686   C 883.38462,562.41914 884.42399,558.42156 885.42338,554.22411   C 885.50333,553.94428 885.54331,553.62447 885.62326,553.34464   C 885.98304,551.70563 886.34282,550.06663 886.7026,548.38764   C 886.86251,547.4682 887.06239,546.50878 887.22229,545.54936   L 887.26227,545.34949   C 887.34222,544.9897 887.38219,544.62992 887.46214,544.27014   C 888.70139,537.51423 889.62084,530.23864 890.14052,522.68322   C 890.22047,521.36402 890.26045,520.04482 890.3404,518.68565   C 890.38038,517.32647 890.42035,515.96729 890.46033,514.56814   C 890.62023,505.97335 890.10055,497.05875 888.74137,488.02423   C 888.18171,484.46638 887.50212,480.90854 886.7026,477.3507   C 886.10297,474.75227 885.3834,472.11387 884.62386,469.51545   C 884.46396,468.99576 884.34403,468.51605 884.18413,468.03634   C 882.38522,462.19988 880.14658,456.36342 877.42823,450.56693   C 877.18837,450.04724 876.94852,449.52756 876.66869,449.00787   C 874.62992,444.81042 872.31133,440.65294 869.75288,436.49546   C 869.47305,436.0957 869.19322,435.65597 868.91339,435.25621   C 867.39431,432.89764 865.79528,430.57904 864.07632,428.26045   C 861.59782,424.86251 858.87947,421.50454 855.96124,418.22653   C 851.88371,413.66929 847.84615,409.55179 843.84858,405.79406   C 842.20957,404.27498 840.57056,402.79588 838.93156,401.35675   C 837.5324,400.15748 836.17323,398.99818 834.77408,397.87886   C 834.69412,397.79891 834.61417,397.75893 834.53422,397.67898   C 831.29618,395.12053 828.1381,392.76196 824.98001,390.64325   C 824.3404,390.20351 823.70079,389.80376 823.06118,389.404   C 819.94306,387.40521 816.90491,385.6063 813.82677,384.04724   C 813.18716,383.68746 812.54755,383.32768 811.86796,383.00787   C 791.12053,372.69412 771.85221,371.33495 754.82253,373.05391   C 741.6705,374.37311 729.83767,377.53119 719.64385,379.76984   C 718.96426,379.92974 718.32465,380.08964 717.64506,380.20957   C 711.04906,381.60872 705.13265,382.52816 700.0957,382.16838   C 692.02059,381.60872 685.46457,376.25197 678.38886,368.33677   C 677.86917,367.7771 677.34949,367.17747 676.86978,366.57783   C 672.7123,361.82071 668.39491,356.26408 663.47789,350.34767   C 662.59843,349.26832 661.67898,348.18898 660.71956,347.10963   C 658.88068,344.91096 656.92187,342.7123 654.8831,340.47365   C 654.56329,340.15385 654.24349,339.79406 653.92368,339.43428   C 653.24409,338.71472 652.56451,337.95518 651.80497,337.19564   C 651.52514,336.87583 651.20533,336.55603 650.88552,336.23622   C 648.56693,333.83767 646.08843,331.43913 643.49001,329.08056   C 632.25681,318.84676 618.18534,309.01272 599.55663,301.4573   C 599.55663,301.4573 599.55663,301.4573 599.51666,301.4573   C 591.68141,298.25924 583.00666,295.50091 573.3725,293.30224   C 562.8189,290.86372 551.46578,289.06481 539.83283,287.98546   C 536.99455,287.74561 534.19624,287.54573 531.35796,287.38583   C 528.31981,287.18595 525.24167,287.06602 522.20351,286.98607   C 520.36463,286.94609 518.52574,286.94609 516.68686,286.94609   C 512.12962,286.90612 507.57238,287.06602 503.05512,287.30588   C 501.45609,287.38583 499.85706,287.50575 498.25803,287.62568   C 478.70987,289.10478 459.88128,293.18231 443.97093,300.37795   C 432.81769,305.45488 390.84313,328.16111 378.49061,366.57783   C 374.61296,378.69049 373.65354,392.3622 377.57117,407.553   C 391.48274,461.28044 370.33555,467.99637 343.87159,493.62084   C 308.53301,527.80012 297.17989,573.89219 325.52271,597.55784   z "
     style="fill:#dde8fd;fill-rule:evenodd;fill-opacity:1;stroke:none;" />
  <path
     id="path11"
     d="  M 348.78861,393.84131   L 348.78861,468.79588   L 465.57783,468.79588   L 465.57783,393.84131   L 348.78861,393.84131   z "
     style="fill:#fa7269;fill-rule:evenodd;fill-opacity:1;stroke:none;" />
  <path
     id="path13"
     d="  M 684.5851,379.05027   L 684.5851,598.39733   L 818.42399,598.39733   L 818.42399,379.05027   L 684.5851,379.05027   z "
     style="fill:#93b3f4;fill-rule:evenodd;fill-opacity:1;stroke:none;" />
  <path
     id="path15"
     d="  M 465.57783,364.85887   L 465.57783,597.89764   L 625.64082,597.89764   L 625.64082,364.85887   L 465.57783,364.85887   z "
     style="fill:#93b3f4;fill-rule:evenodd;fill-opacity:1;stroke:none;" />
  <path
     id="path17"
     d="  M 459.2017,286.74621   L 459.2017,400.35736   L 688.06299,400.35736   L 688.06299,286.74621   L 459.2017,286.74621   z "
     style="fill:#fa7269;fill-rule:evenodd;fill-opacity:1;stroke:none;" />
  <path
     id="path19"
     d="  M 581.00787,385.68625   L 701.33495,261.28165   L 821.62205,385.68625   L 581.00787,385.68625   z "
     style="fill:#93b3f4;fill-rule:evenodd;fill-opacity:1;stroke:none;" />
  <path
     id="path21"
     d="  M 831.49606,397.83889   C 830.41672,397.83889 829.33737,397.43913 828.49788,396.55966   L 701.33495,275.67293   C 660.83949,315.9685 613.78801,354.78498 612.34888,355.82435   C 610.35009,357.30345 607.59176,356.70382 606.23259,354.46517   C 604.91339,352.34646 605.3931,349.4682 607.23198,347.94912   C 610.15021,345.31072 663.23804,292.58268 698.33677,257.64385   C 700.05572,255.92489 702.65415,255.96487 704.33313,257.68383   L 834.49425,389.48395   C 836.29316,391.28286 836.41308,394.36099 834.7341,396.31981   C 833.85463,397.35918 832.69534,397.83889 831.49606,397.83889   z "
     style="fill:#fa7269;fill-rule:evenodd;fill-opacity:1;stroke:none;" />
  <path
     id="path23"
     d="  M 545.70927,364.85887   L 545.70927,597.91763   L 705.73228,597.91763   L 705.73228,364.85887   L 545.70927,364.85887   z "
     style="fill:#bed2fa;fill-rule:evenodd;fill-opacity:1;stroke:none;" />
  <path
     id="path25"
     d="  M 545.70927,364.85887   L 625.62084,282.10902   L 705.73228,364.85887   L 545.70927,364.85887   z "
     style="fill:#bed2fa;fill-rule:evenodd;fill-opacity:1;stroke:none;" />
  <path
     id="path27"
     d="  M 648.7868,392.28225   L 648.7868,437.31496   L 601.87523,437.31496   L 601.87523,393.16172   C 601.87523,385.52635 604.85342,378.65051 609.61054,373.8934   C 610.37008,373.11387 611.18958,372.41429 612.06905,371.77468   C 612.88855,371.09509 613.74803,370.51545 614.66747,369.99576   C 617.96548,368.09691 621.7232,367.03755 625.72078,367.03755   C 629.71835,367.03755 633.4361,368.13689 636.71411,370.11569   C 637.61357,370.61538 638.49303,371.21502 639.33253,371.93459   C 640.09207,372.51423 640.83162,373.19382 641.53119,373.8934   C 645.98849,378.49061 648.7868,385.02665 648.7868,392.28225   z "
     style="fill:#93b3f4;fill-rule:evenodd;fill-opacity:1;stroke:none;" />
  <path
     id="path29"
     d="  M 605.63295,382.28831   L 645.40884,382.28831   C 644.26953,379.60993 642.63053,377.11145 640.61175,375.03271   C 639.97214,374.37311 639.29255,373.75348 638.57299,373.21381   C 637.75348,372.51423 636.95397,371.95457 636.15445,371.53483   C 632.9364,369.57601 629.45851,368.59661 625.76075,368.59661   C 622.12296,368.59661 618.52514,369.55603 615.38704,371.37492   C 614.42762,371.9146 613.6281,372.45427 612.94852,373.01393   C 612.06905,373.67353 611.30951,374.35312 610.60993,375.0527   C 608.55118,377.11145 606.85221,379.56996 605.63295,382.28831   z  M 649.68625,385.52635   L 601.27559,385.52635   L 602.01514,383.34767   C 603.41429,379.31012 605.67293,375.61236 608.61114,372.67414   C 609.41066,371.87462 610.29013,371.09509 611.22956,370.39552   C 611.9891,369.75591 612.92853,369.13628 614.00787,368.51666   C 617.58571,366.43792 621.64325,365.35857 625.76075,365.35857   C 629.9782,365.35857 633.9358,366.47789 637.49364,368.65657   C 638.43307,369.15627 639.39249,369.81587 640.31193,370.61538   C 641.01151,371.11508 641.77105,371.81466 642.61054,372.67414   C 645.50878,375.67232 647.70745,379.37008 649.00666,383.36766   L 649.68625,385.52635  "
     style="fill:#ffffff;fill-rule:evenodd;fill-opacity:1;stroke:none;" />
  <path
     id="path31"
     d="  M 579.32889,383.84737   L 579.32889,437.33495   L 671.31314,437.33495   L 671.31314,383.84737   L 579.32889,383.84737   z "
     style="fill:#93b3f4;fill-rule:evenodd;fill-opacity:1;stroke:none;" />
  <path
     id="path33"
     d="  M 623.80194,383.84737   L 623.80194,437.31496   L 626.8401,437.31496   L 626.8401,383.84737   L 623.80194,383.84737   z "
     style="fill:#ffffff;fill-rule:evenodd;fill-opacity:1;stroke:none;" />
  <path
     id="path35"
     d="  M 580.40824,400.35736   L 580.40824,401.83646   L 669.35433,401.83646   L 669.35433,400.35736   L 580.40824,400.35736   z "
     style="fill:#ffffff;fill-rule:evenodd;fill-opacity:1;stroke:none;" />
  <path
     id="path37"
     d="  M 580.40824,417.82677   L 580.40824,419.50575   L 669.35433,419.50575   L 669.35433,417.82677   L 580.40824,417.82677   z "
     style="fill:#ffffff;fill-rule:evenodd;fill-opacity:1;stroke:none;" />
  <path
     id="path39"
     d="  M 603.39431,383.84737   L 603.39431,437.31496   L 606.45245,437.31496   L 606.45245,383.84737   L 603.39431,383.84737   z "
     style="fill:#ffffff;fill-rule:evenodd;fill-opacity:1;stroke:none;" />
  <path
     id="path41"
     d="  M 644.36947,383.84737   L 644.36947,437.31496   L 647.24773,437.31496   L 647.24773,383.84737   L 644.36947,383.84737   z "
     style="fill:#ffffff;fill-rule:evenodd;fill-opacity:1;stroke:none;" />
  <path
     id="path43"
     d="  M 668.43489,383.84737   L 668.43489,437.33495   L 671.31314,437.33495   L 671.31314,383.84737   L 668.43489,383.84737   z "
     style="fill:#ffffff;fill-rule:evenodd;fill-opacity:1;stroke:none;" />
  <path
     id="path45"
     d="  M 579.32889,383.84737   L 579.32889,437.31496   L 582.38704,437.31496   L 582.38704,383.84737   L 579.32889,383.84737   z "
     style="fill:#ffffff;fill-rule:evenodd;fill-opacity:1;stroke:none;" />
  <path
     id="path47"
     d="  M 579.32889,434.17686   L 579.32889,437.33495   L 671.31314,437.33495   L 671.31314,434.17686   L 579.32889,434.17686   z "
     style="fill:#ffffff;fill-rule:evenodd;fill-opacity:1;stroke:none;" />
  <path
     id="path49"
     d="  M 579.32889,383.84737   L 579.32889,387.20533   L 671.31314,387.20533   L 671.31314,383.84737   L 579.32889,383.84737   z "
     style="fill:#ffffff;fill-rule:evenodd;fill-opacity:1;stroke:none;" />
  <path
     id="path51"
     d="  M 639.33253,371.97456   L 625.50091,388.02483   L 612.06905,371.81466   C 612.90854,371.11508 613.78801,370.55542 614.70745,370.03574   L 625.54088,383.10781   L 636.7341,370.15566   C 637.63356,370.63537 638.51302,371.255 639.33253,371.97456   z "
     style="fill:#ffffff;fill-rule:evenodd;fill-opacity:1;stroke:none;" />
  <path
     id="path53"
     d="  M 579.32889,491.14234   L 579.32889,544.58995   L 671.31314,544.58995   L 671.31314,491.14234   L 579.32889,491.14234   z "
     style="fill:#93b3f4;fill-rule:evenodd;fill-opacity:1;stroke:none;" />
  <path
     id="path55"
     d="  M 623.80194,491.12235   L 623.80194,544.58995   L 626.8401,544.58995   L 626.8401,491.12235   L 623.80194,491.12235   z "
     style="fill:#ffffff;fill-rule:evenodd;fill-opacity:1;stroke:none;" />
  <path
     id="path57"
     d="  M 580.40824,507.61236   L 580.40824,509.13144   L 669.35433,509.13144   L 669.35433,507.61236   L 580.40824,507.61236   z "
     style="fill:#ffffff;fill-rule:evenodd;fill-opacity:1;stroke:none;" />
  <path
     id="path59"
     d="  M 580.40824,525.12174   L 580.40824,526.76075   L 669.35433,526.76075   L 669.35433,525.12174   L 580.40824,525.12174   z "
     style="fill:#ffffff;fill-rule:evenodd;fill-opacity:1;stroke:none;" />
  <path
     id="path61"
     d="  M 603.39431,491.12235   L 603.39431,544.58995   L 606.45245,544.58995   L 606.45245,491.12235   L 603.39431,491.12235   z "
     style="fill:#ffffff;fill-rule:evenodd;fill-opacity:1;stroke:none;" />
  <path
     id="path63"
     d="  M 644.36947,491.12235   L 644.36947,544.58995   L 647.24773,544.58995   L 647.24773,491.12235   L 644.36947,491.12235   z "
     style="fill:#ffffff;fill-rule:evenodd;fill-opacity:1;stroke:none;" />
  <path
     id="path65"
     d="  M 668.43489,491.14234   L 668.43489,544.58995   L 671.31314,544.58995   L 671.31314,491.14234   L 668.43489,491.14234   z "
     style="fill:#ffffff;fill-rule:evenodd;fill-opacity:1;stroke:none;" />
  <path
     id="path67"
     d="  M 579.32889,491.12235   L 579.32889,544.58995   L 582.38704,544.58995   L 582.38704,491.12235   L 579.32889,491.12235   z "
     style="fill:#ffffff;fill-rule:evenodd;fill-opacity:1;stroke:none;" />
  <path
     id="path69"
     d="  M 579.32889,541.43186   L 579.32889,544.58995   L 671.31314,544.58995   L 671.31314,541.43186   L 579.32889,541.43186   z "
     style="fill:#ffffff;fill-rule:evenodd;fill-opacity:1;stroke:none;" />
  <path
     id="path71"
     d="  M 579.32889,491.14234   L 579.32889,494.30042   L 671.31314,494.30042   L 671.31314,491.14234   L 579.32889,491.14234   z "
     style="fill:#ffffff;fill-rule:evenodd;fill-opacity:1;stroke:none;" />
  <path
     id="path73"
     d="  M 487.50454,491.12235   L 487.50454,544.58995   L 528.17989,544.58995   L 528.17989,491.12235   L 487.50454,491.12235   z "
     style="fill:#6d89cf;fill-rule:evenodd;fill-opacity:1;stroke:none;" />
  <path
     id="path75"
     d="  M 525.74137,491.12235   L 525.74137,544.58995   L 528.17989,544.58995   L 528.17989,491.12235   L 525.74137,491.12235   z "
     style="fill:#ffffff;fill-rule:evenodd;fill-opacity:1;stroke:none;" />
  <path
     id="path77"
     d="  M 487.96426,507.61236   L 487.96426,509.11145   L 527.26045,509.11145   L 527.26045,507.61236   L 487.96426,507.61236   z "
     style="fill:#ffffff;fill-rule:evenodd;fill-opacity:1;stroke:none;" />
  <path
     id="path79"
     d="  M 487.96426,525.10176   L 487.96426,526.76075   L 527.26045,526.76075   L 527.26045,525.10176   L 487.96426,525.10176   z "
     style="fill:#ffffff;fill-rule:evenodd;fill-opacity:1;stroke:none;" />
  <path
     id="path81"
     d="  M 506.3931,491.12235   L 506.3931,544.58995   L 508.83162,544.58995   L 508.83162,491.12235   L 506.3931,491.12235   z "
     style="fill:#ffffff;fill-rule:evenodd;fill-opacity:1;stroke:none;" />
  <path
     id="path83"
     d="  M 487.50454,491.12235   L 487.50454,544.58995   L 489.94306,544.58995   L 489.94306,491.12235   L 487.50454,491.12235   z "
     style="fill:#ffffff;fill-rule:evenodd;fill-opacity:1;stroke:none;" />
  <path
     id="path85"
     d="  M 487.50454,541.43186   L 487.50454,544.58995   L 528.17989,544.58995   L 528.17989,541.43186   L 487.50454,541.43186   z "
     style="fill:#ffffff;fill-rule:evenodd;fill-opacity:1;stroke:none;" />
  <path
     id="path87"
     d="  M 487.50454,491.12235   L 487.50454,494.28044   L 528.17989,494.28044   L 528.17989,491.12235   L 487.50454,491.12235   z "
     style="fill:#ffffff;fill-rule:evenodd;fill-opacity:1;stroke:none;" />
  <path
     id="path89"
     d="  M 487.50454,414.66869   L 487.50454,467.97638   L 528.17989,467.97638   L 528.17989,414.66869   L 487.50454,414.66869   z "
     style="fill:#6d89cf;fill-rule:evenodd;fill-opacity:1;stroke:none;" />
  <path
     id="path91"
     d="  M 525.74137,414.66869   L 525.74137,467.97638   L 528.17989,467.97638   L 528.17989,414.66869   L 525.74137,414.66869   z "
     style="fill:#ffffff;fill-rule:evenodd;fill-opacity:1;stroke:none;" />
  <path
     id="path93"
     d="  M 487.96426,430.99879   L 487.96426,432.65778   L 527.26045,432.65778   L 527.26045,430.99879   L 487.96426,430.99879   z "
     style="fill:#ffffff;fill-rule:evenodd;fill-opacity:1;stroke:none;" />
  <path
     id="path95"
     d="  M 487.96426,448.64809   L 487.96426,450.14718   L 527.26045,450.14718   L 527.26045,448.64809   L 487.96426,448.64809   z "
     style="fill:#ffffff;fill-rule:evenodd;fill-opacity:1;stroke:none;" />
  <path
     id="path97"
     d="  M 506.3931,414.66869   L 506.3931,467.97638   L 508.83162,467.97638   L 508.83162,414.66869   L 506.3931,414.66869   z "
     style="fill:#ffffff;fill-rule:evenodd;fill-opacity:1;stroke:none;" />
  <path
     id="path99"
     d="  M 487.50454,414.66869   L 487.50454,467.97638   L 489.94306,467.97638   L 489.94306,414.66869   L 487.50454,414.66869   z "
     style="fill:#ffffff;fill-rule:evenodd;fill-opacity:1;stroke:none;" />
  <path
     id="path101"
     d="  M 487.50454,464.7983   L 487.50454,467.97638   L 528.17989,467.97638   L 528.17989,464.7983   L 487.50454,464.7983   z "
     style="fill:#ffffff;fill-rule:evenodd;fill-opacity:1;stroke:none;" />
  <path
     id="path103"
     d="  M 487.50454,414.66869   L 487.50454,417.82677   L 528.17989,417.82677   L 528.17989,414.66869   L 487.50454,414.66869   z "
     style="fill:#ffffff;fill-rule:evenodd;fill-opacity:1;stroke:none;" />
  <path
     id="path105"
     d="  M 741.07087,373.53362   L 741.07087,427.0212   L 781.72623,427.0212   L 781.72623,373.53362   L 741.07087,373.53362   z "
     style="fill:#6d89cf;fill-rule:evenodd;fill-opacity:1;stroke:none;" />
  <path
     id="path107"
     d="  M 779.2877,373.53362   L 779.2877,427.0212   L 781.72623,427.0212   L 781.72623,373.53362   L 779.2877,373.53362   z "
     style="fill:#ffffff;fill-rule:evenodd;fill-opacity:1;stroke:none;" />
  <path
     id="path109"
     d="  M 741.5106,390.04361   L 741.5106,391.68262   L 780.96669,391.68262   L 780.96669,390.04361   L 741.5106,390.04361   z "
     style="fill:#ffffff;fill-rule:evenodd;fill-opacity:1;stroke:none;" />
  <path
     id="path111"
     d="  M 741.5106,407.51302   L 741.5106,409.192   L 780.96669,409.192   L 780.96669,407.51302   L 741.5106,407.51302   z "
     style="fill:#ffffff;fill-rule:evenodd;fill-opacity:1;stroke:none;" />
  <path
     id="path113"
     d="  M 759.93943,373.53362   L 759.93943,427.0212   L 762.53786,427.0212   L 762.53786,373.53362   L 759.93943,373.53362   z "
     style="fill:#ffffff;fill-rule:evenodd;fill-opacity:1;stroke:none;" />
  <path
     id="path115"
     d="  M 741.07087,373.53362   L 741.07087,427.0212   L 743.66929,427.0212   L 743.66929,373.53362   L 741.07087,373.53362   z "
     style="fill:#ffffff;fill-rule:evenodd;fill-opacity:1;stroke:none;" />
  <path
     id="path117"
     d="  M 741.07087,423.82314   L 741.07087,427.0212   L 781.72623,427.0212   L 781.72623,423.82314   L 741.07087,423.82314   z "
     style="fill:#ffffff;fill-rule:evenodd;fill-opacity:1;stroke:none;" />
  <path
     id="path119"
     d="  M 741.07087,373.53362   L 741.07087,376.85161   L 781.72623,376.85161   L 781.72623,373.53362   L 741.07087,373.53362   z "
     style="fill:#ffffff;fill-rule:evenodd;fill-opacity:1;stroke:none;" />
  <path
     id="path121"
     d="  M 534.39612,377.53119   C 532.957,377.53119 531.55784,376.77165 530.71835,375.3725   C 529.39915,373.17383 529.87886,370.33555 531.71775,368.81647   C 534.63598,366.17807 587.68383,313.45003 622.78256,278.47123   C 624.46154,276.75227 627.05996,276.79225 628.73895,278.47123   L 718.16475,369.13628   C 719.96366,370.93519 720.04361,374.01333 718.4046,375.93216   C 716.72562,377.93095 713.92732,378.05088 712.16838,376.21199   L 624.78134,298.65899   C 586.84434,334.27741 538.2338,375.65233 536.83465,376.6917   C 536.07511,377.25136 535.23561,377.53119 534.39612,377.53119   z "
     style="fill:#fb8d85;fill-rule:evenodd;fill-opacity:1;stroke:none;" />
  <path
     id="path123"
     d="  M 355.34464,468.79588   L 355.34464,596.89824   L 465.57783,596.89824   L 465.57783,468.79588   L 355.34464,468.79588   z "
     style="fill:#bed2fa;fill-rule:evenodd;fill-opacity:1;stroke:none;" />
  <path
     id="path125"
     d="  M 705.73228,436.17565   L 705.73228,487.62447   L 824.06057,487.62447   L 824.06057,436.17565   L 705.73228,436.17565   z "
     style="fill:#3662c1;fill-rule:evenodd;fill-opacity:1;stroke:none;" />
  <path
     id="path127"
     d="  M 775.76984,584.08601   L 733.15566,584.08601   L 733.15566,528.55966   C 733.15566,515.60751 742.74985,505.13386 754.58268,505.13386   L 754.58268,505.13386   C 766.29558,505.13386 775.76984,515.48758 775.76984,528.27983   L 775.76984,584.08601   z "
     style="fill:#6d89cf;fill-rule:evenodd;fill-opacity:1;stroke:none;" />
  <path
     id="path129"
     d="  M 771.81224,528.91944   L 771.81224,529.95881   L 737.27317,529.95881   L 737.27317,529.11932   C 737.27317,519.0854 744.70866,510.97032 753.86311,510.97032   L 755.42217,510.97032   C 764.49667,510.97032 771.81224,518.96548 771.81224,528.91944   z "
     style="fill:#3662c1;fill-rule:evenodd;fill-opacity:1;stroke:none;" />
  <path
     id="path131"
     d="  M 737.27317,535.7553   L 737.27317,550.94609   L 771.81224,550.94609   L 771.81224,535.7553   L 737.27317,535.7553   z "
     style="fill:#3662c1;fill-rule:evenodd;fill-opacity:1;stroke:none;" />
  <path
     id="path133"
     d="  M 737.27317,555.94306   L 737.27317,580.72804   L 771.81224,580.72804   L 771.81224,555.94306   L 737.27317,555.94306   z "
     style="fill:#3662c1;fill-rule:evenodd;fill-opacity:1;stroke:none;" />
  <path
     id="path135"
     d="  M 722.48213,583.24652   L 722.48213,588.40339   L 786.44337,588.40339   L 786.44337,583.24652   L 722.48213,583.24652   z "
     style="fill:#6d89cf;fill-rule:evenodd;fill-opacity:1;stroke:none;" />
  <path
     id="path137"
     d="  M 717.16535,588.40339   L 717.16535,593.40036   L 791.92005,593.40036   L 791.92005,588.40339   L 717.16535,588.40339   z "
     style="fill:#6d89cf;fill-rule:evenodd;fill-opacity:1;stroke:none;" />
  <path
     id="path139"
     d="  M 712.72804,593.40036   L 712.72804,598.39733   L 796.35736,598.39733   L 796.35736,593.40036   L 712.72804,593.40036   z "
     style="fill:#6d89cf;fill-rule:evenodd;fill-opacity:1;stroke:none;" />
  <path
     id="path141"
     d="  M 385.48637,492.46154   L 385.48637,565.41732   L 441.2126,565.41732   L 441.2126,492.46154   L 385.48637,492.46154   z "
     style="fill:#93b3f4;fill-rule:evenodd;fill-opacity:1;stroke:none;" />
  <path
     id="path143"
     d="  M 437.71472,492.46154   L 437.71472,565.41732   L 441.2126,565.41732   L 441.2126,492.46154   L 437.71472,492.46154   z "
     style="fill:#ffffff;fill-rule:evenodd;fill-opacity:1;stroke:none;" />
  <path
     id="path145"
     d="  M 386.24591,514.76802   L 386.24591,517.1066   L 439.99334,517.1066   L 439.99334,514.76802   L 386.24591,514.76802   z "
     style="fill:#ffffff;fill-rule:evenodd;fill-opacity:1;stroke:none;" />
  <path
     id="path147"
     d="  M 386.24591,538.93337   L 386.24591,541.09207   L 439.99334,541.09207   L 439.99334,538.93337   L 386.24591,538.93337   z "
     style="fill:#ffffff;fill-rule:evenodd;fill-opacity:1;stroke:none;" />
  <path
     id="path149"
     d="  M 411.37068,492.46154   L 411.37068,565.41732   L 414.86856,565.41732   L 414.86856,492.46154   L 411.37068,492.46154   z "
     style="fill:#ffffff;fill-rule:evenodd;fill-opacity:1;stroke:none;" />
  <path
     id="path151"
     d="  M 385.48637,492.46154   L 385.48637,565.41732   L 388.98425,565.41732   L 388.98425,492.46154   L 385.48637,492.46154   z "
     style="fill:#ffffff;fill-rule:evenodd;fill-opacity:1;stroke:none;" />
  <path
     id="path153"
     d="  M 385.48637,561.07995   L 385.48637,565.41732   L 441.2126,565.41732   L 441.2126,561.07995   L 385.48637,561.07995   z "
     style="fill:#ffffff;fill-rule:evenodd;fill-opacity:1;stroke:none;" />
  <path
     id="path155"
     d="  M 385.48637,492.46154   L 385.48637,496.77892   L 441.2126,496.77892   L 441.2126,492.46154   L 385.48637,492.46154   z "
     style="fill:#ffffff;fill-rule:evenodd;fill-opacity:1;stroke:none;" />
  <path
     id="path157"
     d="  M 427.98062,468.79588   L 348.78861,468.79588   L 348.78861,393.84131   L 397.51908,393.84131   L 427.98062,468.79588   z "
     style="fill:#fb8d85;fill-rule:evenodd;fill-opacity:1;stroke:none;" />
  <path
     id="path159"
     d="  M 521.46396,400.33737   L 459.18171,400.33737   L 459.18171,286.74621   L 482.60751,286.74621   C 489.28346,306.97396 509.79104,366.49788 521.46396,400.33737   z "
     style="fill:#fb8d85;fill-rule:evenodd;fill-opacity:1;stroke:none;" />
  <path
     id="path161"
     d="  M 824.06057,436.17565   L 824.06057,487.62447   L 745.78801,487.62447   L 776.84918,436.17565   L 824.06057,436.17565   z "
     style="fill:#6d89cf;fill-rule:evenodd;fill-opacity:1;stroke:none;" />
  <path
     id="path163"
     d="  M 538.07389,311.07147   L 525.42156,311.07147   L 525.42156,283.56814   C 525.42156,281.72925 526.80073,280.25015 528.4997,280.25015   L 535.05572,280.25015   C 536.71472,280.25015 538.07389,281.70927 538.07389,283.48819   L 538.07389,311.07147   z "
     style="fill:#fc9290;fill-rule:evenodd;fill-opacity:1;stroke:none;" />
  <path
     id="path165"
     d="  M 522.54331,277.25197   L 540.81224,277.25197   L 531.67777,267.75772   L 522.54331,277.25197   z "
     style="fill:#fa7269;fill-rule:evenodd;fill-opacity:1;stroke:none;" />
  <path
     id="path167"
     d="  M 527.86008,280.25015   L 527.10055,280.25015   L 526.96063,277.09207   L 528.01999,277.09207   L 527.86008,280.25015   z "
     style="fill:#fa7269;fill-rule:evenodd;fill-opacity:1;stroke:none;" />
  <path
     id="path169"
     d="  M 536.23501,280.25015   L 535.47547,280.25015   L 535.33555,277.09207   L 536.39491,277.09207   L 536.23501,280.25015   z "
     style="fill:#fa7269;fill-rule:evenodd;fill-opacity:1;stroke:none;" />
  <path
     id="path171"
     d="  M 850.28468,596.71835   L 835.09388,596.71835   C 834.25439,595.95881 835.65354,594.23985 837.09267,594.11993   C 837.69231,594.03998 838.49182,594.23985 839.41127,594.43973   C 839.61114,591.3616 840.81042,577.56996 845.32768,578.12962   C 850.36463,578.72925 845.32768,584.20594 843.88855,587.404   C 842.80921,589.80254 841.68988,593.24046 841.21018,594.83949   C 841.60993,594.95942 842.04967,595.03937 842.44942,595.1593   C 843.12901,592.88068 845.60751,585.20533 848.80557,585.68504   C 852.52332,586.20472 851.04422,589.24288 848.40581,591.08177   C 846.447,592.40097 844.08843,594.31981 842.92913,595.23925   C 843.88855,595.39915 844.88795,595.51908 845.92732,595.4791   C 848.52574,595.43913 849.76499,596.27862 850.28468,596.71835   z "
     style="fill:#6d89cf;fill-rule:evenodd;fill-opacity:1;stroke:none;" />
  <path
     id="path173"
     d="  M 465.57783,552.54512   L 465.57783,597.03816   L 369.49606,597.05815   C 369.49606,597.05815 372.5742,585.14537 384.68686,578.60933   C 385.82617,577.96972 387.0854,577.39007 388.4046,576.89037   C 390.02362,576.27075 391.74258,575.79104 393.58147,575.37129   C 393.60145,575.37129 393.62144,575.37129 393.66142,575.33131   C 394.48092,575.17141 395.28044,574.95154 396.05996,574.63174   C 413.16959,568.35554 413.94912,539.25318 463.01938,551.84555   C 463.89885,552.06541 464.75833,552.30527 465.57783,552.54512   z "
     style="fill:#6d89cf;fill-rule:evenodd;fill-opacity:1;stroke:none;" />
  <path
     id="path175"
     d="  M 391.8825,581.40763   C 391.8825,581.40763 377.49122,560.58025 371.05512,566.19685   C 364.61902,571.81345 391.8825,581.40763 391.8825,581.40763   z "
     style="fill:#6d89cf;fill-rule:evenodd;fill-opacity:1;stroke:none;" />
  <path
     id="path177"
     d="  M 396.23985,579.40884   C 396.23985,578.44942 396.45972,559.08116 390.44337,560.5003   C 384.42701,561.89945 396.23985,579.40884 396.23985,579.40884   z "
     style="fill:#6d89cf;fill-rule:evenodd;fill-opacity:1;stroke:none;" />
  <path
     id="path179"
     d="  M 531.51787,596.59843   C 531.51787,596.59843 538.3937,580.52816 553.9043,580.28831   C 569.4149,580.08843 577.92974,560.26045 592.36099,561.17989   C 606.83222,562.13931 608.51121,577.68988 618.86493,580.28831   C 629.17868,582.88674 657.56148,577.29013 659.28044,597.55784   L 531.51787,596.59843   z "
     style="fill:#6d89cf;fill-rule:evenodd;fill-opacity:1;stroke:none;" />
  <path
     id="path181"
     d="  M 564.87765,580.22835   C 564.87765,580.02847 553.70442,557.42217 549.62689,561.19988   C 545.52938,564.99758 564.87765,580.22835 564.87765,580.22835   z "
     style="fill:#6d89cf;fill-rule:evenodd;fill-opacity:1;stroke:none;" />
  <path
     id="path183"
     d="  M 560.76015,581.06784   C 560.76015,581.06784 550.82617,574.23198 546.10902,575.91096   C 541.41187,577.58995 560.76015,581.06784 560.76015,581.06784   z "
     style="fill:#6d89cf;fill-rule:evenodd;fill-opacity:1;stroke:none;" />
  <path
     id="path185"
     d="  M 585.16535,567.23622   C 585.28528,566.53664 584.94549,548.74743 579.62871,551.00606   C 574.31193,553.2447 585.16535,567.23622 585.16535,567.23622   z "
     style="fill:#6d89cf;fill-rule:evenodd;fill-opacity:1;stroke:none;" />
  <path
     id="path187"
     d="  M 588.40339,563.91823   C 588.60327,563.57844 591.82132,554.08419 589.46275,554.08419   C 587.10418,554.08419 588.60327,563.57844 588.60327,563.57844   L 588.40339,563.91823   z "
     style="fill:#6d89cf;fill-rule:evenodd;fill-opacity:1;stroke:none;" />
  <path
     id="path189"
     d="  M 684.4252,372.37432   C 684.4252,372.37432 675.71048,376.89158 673.75167,376.33192   C 671.79285,375.77226 664.27741,374.29316 663.23804,374.81284   C 663.23804,374.81284 662.03876,376.93156 662.91823,378.29073   C 663.83767,379.68988 671.11326,383.40763 673.75167,383.56753   C 676.39007,383.68746 686.42399,381.68867 688.5427,379.84979   L 684.4252,372.37432   z "
     style="fill:#fb847d;fill-rule:evenodd;fill-opacity:1;stroke:none;" />
  <path
     id="path191"
     d="  M 663.43792,374.85282   C 663.43792,374.85282 660.11993,373.37371 659.04058,375.0527   C 657.92126,376.73168 657.32162,378.41066 657.48153,379.29013   C 657.60145,380.16959 659.8401,380.52938 660.71956,379.88976   C 661.63901,379.21018 663.87765,378.25076 663.87765,378.25076   L 663.43792,374.85282   z "
     style="fill:#fb847d;fill-rule:evenodd;fill-opacity:1;stroke:none;" />
  <path
     id="path193"
     d="  M 667.83525,376.85161   C 667.83525,376.85161 671.67293,393.96124 677.42944,406.75348   C 678.98849,410.3513 680.74743,413.58934 682.58631,415.98789   C 683.50575,417.18716 684.38522,418.18655 685.34464,418.90612   C 695.09873,426.66142 710.52938,414.3089 710.52938,414.3089   C 711.04906,406.79346 698.6166,394.16111 690.62144,386.60569   C 687.50333,383.68746 685.06481,381.48879 684.38522,380.68928   C 683.06602,379.21018 680.22774,378.29073 677.30951,377.73107   C 672.7123,376.85161 667.83525,376.85161 667.83525,376.85161   z "
     style="fill:#aa4b47;fill-rule:evenodd;fill-opacity:1;stroke:none;" />
  <path
     id="path195"
     d="  M 647.48758,588.10357   C 647.48758,588.10357 649.34646,591.38159 649.38643,595.19927   C 649.38643,596.03876 648.76681,596.71835 647.98728,596.71835   L 636.41429,596.71835   C 635.29497,596.71835 634.45548,595.57904 634.73531,594.37977   C 635.29497,592.06118 636.43428,588.56329 638.75288,586.44458   C 642.43065,583.06663 647.48758,588.10357 647.48758,588.10357   z "
     style="fill:#060632;fill-rule:evenodd;fill-opacity:1;stroke:none;" />
  <path
     id="path197"
     d="  M 665.67656,584.72562   C 665.67656,584.72562 666.35615,596.35857 668.39491,596.55845   C 668.67474,596.55845 678.86856,596.55845 678.86856,596.55845   L 692.02059,596.55845   C 692.02059,596.55845 691.82071,593.04058 688.02302,592.32102   C 684.18534,591.60145 677.82919,588.68322 675.5106,583.20654   C 673.11205,577.41005 665.67656,584.72562 665.67656,584.72562   z "
     style="fill:#060632;fill-rule:evenodd;fill-opacity:1;stroke:none;" />
  <path
     id="path199"
     d="  M 660.11993,512.52938   C 660.59964,519.00545 660.67959,524.16233 660.03998,526.56087   C 657.32162,537.43428 664.957,586.48455 664.957,586.48455   C 670.5536,589.40279 678.54876,586.44458 678.54876,586.44458   C 678.06905,579.6487 681.02726,518.84555 683.78558,481.74803   C 684.90491,466.19746 685.78437,455.28407 685.78437,455.28407   L 652.12477,451.00666   C 652.12477,451.00666 658.5209,490.02302 660.11993,512.52938   z "
     style="fill:#fa7269;fill-rule:evenodd;fill-opacity:1;stroke:none;" />
  <path
     id="path201"
     d="  M 652.12477,451.00666   C 652.12477,451.00666 658.5209,489.94306 660.11993,512.44942   L 683.78558,481.70806   C 684.90491,466.15748 685.78437,455.24409 685.78437,455.24409   L 652.12477,451.00666   z "
     style="fill:#fa7269;fill-rule:evenodd;fill-opacity:1;stroke:none;" />
  <path
     id="path203"
     d="  M 668.59479,459.2017   C 668.59479,459.2017 651.56511,567.65597 648.64688,588.64325   C 648.64688,588.64325 642.29073,590.56208 635.77468,587.5639   C 635.77468,587.5639 634.93519,537.19443 637.13386,522.00363   C 639.3725,506.81284 635.97456,459.88128 639.57238,455.52392   C 643.13022,451.16657 668.59479,459.2017 668.59479,459.2017   z "
     style="fill:#fb8780;fill-rule:evenodd;fill-opacity:1;stroke:none;" />
  <path
     id="path205"
     d="  M 666.95578,366.81769   C 666.95578,366.81769 668.27498,376.41187 667.71532,379.29013   C 667.11569,382.12841 658.40097,383.68746 654.7232,381.32889   C 651.0854,378.97032 652.16475,378.09085 652.16475,378.09085   C 652.16475,378.09085 652.72441,367.09752 653.24409,366.298   C 653.76378,365.53846 666.95578,366.81769 666.95578,366.81769   z "
     style="fill:#fc9290;fill-rule:evenodd;fill-opacity:1;stroke:none;" />
  <path
     id="path207"
     d="  M 637.69352,460.76075   C 637.69352,460.76075 640.13204,462.31981 646.32829,463.63901   C 650.84555,464.6384 657.40157,465.47789 666.4361,465.47789   C 682.94609,465.47789 688.42277,460.32102 688.42277,460.32102   C 689.30224,460.32102 685.26469,435.21623 685.26469,413.74924   C 685.26469,393.92126 679.94791,379.09025 670.79346,377.33131   C 669.03452,376.97153 667.83525,376.77165 667.83525,376.85161   C 667.83525,378.45064 665.47668,381.48879 661.83889,381.72865   C 657.56148,382.04846 652.2447,379.52998 652.2447,376.85161   C 652.2447,376.6917 642.21078,377.37129 639.01272,397.4791   C 637.8934,404.35494 637.61357,413.46941 638.77286,425.5421   C 639.17262,429.73955 636.29437,460.72078 637.69352,460.76075   z "
     style="fill:#aa4b47;fill-rule:evenodd;fill-opacity:1;stroke:none;" />
  <path
     id="path209"
     d="  M 637.69352,460.76075   C 637.69352,460.76075 640.13204,462.31981 646.28831,463.63901   C 654.84313,459.5215 671.79285,448.84797 672.43247,430.93882   C 673.31193,407.07329 646.68807,392.84191 646.68807,392.84191   C 646.68807,392.84191 643.09025,395.04058 639.01272,397.59903   C 637.8934,404.43489 637.61357,413.54936 638.77286,425.62205   C 639.17262,429.8195 636.29437,460.72078 637.69352,460.76075   z "
     style="fill:#9e332e;fill-rule:evenodd;fill-opacity:1;stroke:none;" />
  <path
     id="path211"
     d="  M 667.07571,367.85706   C 667.07571,367.85706 663.6378,373.13386 660.03998,373.13386   C 656.44216,373.21381 652.76439,367.93701 652.76439,367.93701   L 667.07571,367.85706   z "
     style="fill:#fb847d;fill-rule:evenodd;fill-opacity:1;stroke:none;" />
  <path
     id="path213"
     d="  M 667.43549,367.6172   C 666.47608,368.41672 664.39733,369.53604 662.67838,370.29558   C 661.35918,370.85524 659.92005,370.85524 658.60085,370.37553   C 656.60206,369.61599 653.64385,368.45669 652.88431,367.93701   C 651.04543,366.73773 651.20533,364.33919 651.0854,360.98122   C 650.96548,356.98365 650.60569,353.86554 651.00545,351.54694   C 651.48516,348.82859 653.08419,347.22956 657.5215,346.8298   C 665.71654,346.07026 669.0745,348.3089 669.2344,351.30709   C 669.27438,352.1066 669.31435,352.86614 669.35433,353.58571   C 669.63416,362.94004 668.99455,366.25803 667.43549,367.6172   z "
     style="fill:#fc9290;fill-rule:evenodd;fill-opacity:1;stroke:none;" />
  <path
     id="path215"
     d="  M 669.2344,352.50636   C 669.2344,352.50636 667.87523,350.30769 665.35675,351.18716   C 662.87826,352.02665 662.59843,354.38522 658.32102,353.98546   C 654.04361,353.62568 653.00424,351.38704 652.20472,352.50636   C 651.44518,353.62568 651.00545,360.22168 651.00545,360.22168   C 651.00545,360.22168 642.41066,338.59479 659.88007,338.59479   C 659.88007,338.59479 677.86917,337.39552 669.2344,359.38219   L 669.2344,352.50636   z "
     style="fill:#12123c;fill-rule:evenodd;fill-opacity:1;stroke:none;" />
  <path
     id="path217"
     d="  M 701.17505,372.85403   L 701.01514,372.97396   C 701.17505,373.05391 701.17505,372.85403 701.17505,372.85403   z "
     style="fill:#fc9290;fill-rule:evenodd;fill-opacity:1;stroke:none;" />
  <path
     id="path219"
     d="  M 710.44942,342.07268   C 710.56935,341.75288 710.60933,341.553 710.60933,341.553   C 710.52938,341.7129 710.4894,341.8728 710.44942,342.07268   z "
     style="fill:#e75755;fill-rule:evenodd;fill-opacity:1;stroke:none;" />
  <path
     id="path221"
     d="  M 660.79952,439.01393   C 660.79952,439.01393 663.11811,441.01272 666.4361,441.01272   C 666.4361,441.01272 669.83404,436.89522 672.7123,432.89764   C 674.59116,430.33919 676.23016,427.82071 676.54997,426.50151   C 677.38946,423.18353 693.45972,422.26408 695.37856,419.90551   C 697.37735,417.58692 687.42338,411.6705 687.42338,411.6705   C 687.42338,411.6705 671.15324,414.42883 668.71472,417.90672   C 667.7553,419.30588 666.2762,422.94367 664.91702,426.78134   C 662.7983,432.65778 660.79952,439.01393 660.79952,439.01393   z "
     style="fill:#fb847d;fill-rule:evenodd;fill-opacity:1;stroke:none;" />
  <path
     id="path223"
     d="  M 683.50575,390.12356   C 683.50575,390.12356 680.42762,383.52756 678.94852,383.72744   C 677.42944,383.92732 682.42641,397.3192 682.86614,403.83525   C 683.30588,410.3513 683.50575,390.12356 683.50575,390.12356   z "
     style="fill:#9e332e;fill-rule:evenodd;fill-opacity:1;stroke:none;" />
  <path
     id="path225"
     d="  M 673.87159,435.25621   C 675.99031,440.93277 678.78861,446.08964 679.10842,446.76923   C 679.14839,446.80921 679.14839,446.80921 679.14839,446.80921   L 679.22835,446.80921   C 679.74803,446.80921 684.18534,446.72925 684.66505,444.77044   C 684.66505,444.77044 684.78498,437.93459 684.54512,432.53786   C 684.4252,430.13931 684.22532,427.98062 683.90551,426.8613   C 683.90551,426.8613 708.17081,426.70139 707.73107,419.14597   C 707.33131,411.6705 694.65899,407.67293 687.34343,411.55058   C 687.34343,411.55058 677.70927,415.42823 672.59237,420.50515   C 670.11387,422.98365 671.63295,429.37977 673.87159,435.25621   z "
     style="fill:#fc9290;fill-rule:evenodd;fill-opacity:1;stroke:none;" />
  <path
     id="path227"
     d="  M 707.05148,408.67232   C 707.05148,408.67232 710.28952,413.90915 709.52998,418.74621   C 708.81042,423.62326 699.57601,426.18171 693.13992,426.50151   C 693.13992,426.50151 674.67111,421.86432 677.54936,413.78922   C 678.18898,411.99031 707.05148,408.67232 707.05148,408.67232   z "
     style="fill:#17135d;fill-rule:evenodd;fill-opacity:1;stroke:none;" />
  <path
     id="path229"
     d="  M 700.37553,344.79104   C 700.37553,344.79104 703.29376,338.07511 710.40945,342.07268   C 717.52514,346.07026 710.60933,361.38098 714.32707,365.1387   C 718.0848,368.89643 712.9679,371.37492 713.72744,374.09328   C 714.48698,376.81163 712.32829,379.84979 707.33131,379.49001   C 702.37432,379.13022 697.13749,379.45003 694.89885,374.69291   C 692.66021,369.97577 693.13992,359.5421 694.01938,358.10297   C 694.89885,356.62386 700.37553,344.79104 700.37553,344.79104   z "
     style="fill:#a83f3f;fill-rule:evenodd;fill-opacity:1;stroke:none;" />
  <path
     id="path231"
     d="  M 688.98243,380.84918   L 701.01514,372.93398   C 700.93519,372.894 700.69534,372.49425 699.81587,369.65597   C 699.41611,368.45669 699.21623,367.37735 699.13628,366.53786   C 699.09631,366.4579 699.09631,366.37795 699.09631,366.298   C 698.97638,365.05875 699.05633,364.37916 699.05633,364.37916   L 696.41793,365.41853   L 691.54088,367.37735   C 691.62084,368.69655 691.42096,369.65597 691.1811,370.29558   C 690.54149,371.89461 689.34222,371.89461 689.30224,371.89461   L 688.98243,380.84918   z "
     style="fill:#fc9290;fill-rule:evenodd;fill-opacity:1;stroke:none;" />
  <path
     id="path233"
     d="  M 691.10115,370.2556   C 695.81829,370.69534 698.45669,367.33737 699.05633,366.49788   C 699.13628,366.37795 699.17626,366.298 699.17626,366.298   C 699.17626,366.298 699.13628,366.298 699.01635,366.25803   C 698.65657,366.1381 697.6172,365.77832 696.37795,365.37856   L 691.50091,367.2974   C 691.58086,368.65657 691.38098,369.61599 691.10115,370.2556   z "
     style="fill:#fb8a82;fill-rule:evenodd;fill-opacity:1;stroke:none;" />
  <path
     id="path235"
     d="  M 690.8613,368.45669   C 690.8613,368.45669 701.33495,369.69594 701.53483,361.94064   C 701.77468,354.14537 703.29376,350.6275 696.05815,349.90793   C 688.82253,349.22835 687.10357,352.1066 686.66384,354.70503   C 685.34464,362.94004 687.90309,368.09691 690.8613,368.45669   z "
     style="fill:#fc9290;fill-rule:evenodd;fill-opacity:1;stroke:none;" />
  <path
     id="path237"
     d="  M 695.53846,353.70563   C 699.25621,352.70624 697.81708,359.8619 698.7765,359.38219   C 699.81587,358.82253 701.61478,358.86251 701.33495,360.22168   C 701.05512,361.62084 700.65536,362.10055 700.41551,362.98001   C 700.21563,363.8195 700.41551,365.53846 701.29497,365.21866   C 702.13446,364.85887 710.16959,354.82495 704.49303,347.02968   C 698.85645,339.2344 681.98667,344.0315 687.30345,352.18655   C 688.2229,353.62568 692.90006,354.46517 695.53846,353.70563   z "
     style="fill:#a83f3f;fill-rule:evenodd;fill-opacity:1;stroke:none;" />
  <path
     id="path239"
     d="  M 682.02665,411.55058   C 682.02665,411.55058 685.14476,413.34949 690.14173,413.26953   C 693.29982,413.22956 700.01575,411.71048 704.33313,410.0315   C 706.81163,409.07208 708.49061,408.03271 708.29073,407.15324   C 707.97093,405.91399 705.89219,396.35978 703.93337,387.48516   C 702.13446,379.37008 700.49546,371.89461 700.49546,371.89461   C 700.49546,371.89461 695.57844,375.69231 692.74016,374.33313   C 689.8619,372.97396 690.22168,371.49485 690.22168,371.49485   C 690.22168,371.49485 686.82374,371.05512 685.94428,371.13507   C 684.46517,371.33495 679.3083,373.37371 679.3083,373.37371   C 679.3083,373.37371 678.62871,375.45245 680.42762,378.69049   C 681.90672,381.36887 683.34585,381.88855 683.34585,381.88855   C 683.34585,381.88855 679.14839,396.39976 682.02665,411.55058   z "
     style="fill:#010117;fill-rule:evenodd;fill-opacity:1;stroke:none;" />
  <path
     id="path241"
     d="  M 697.7771,398.67838   C 697.7771,398.67838 694.77892,398.03876 693.57965,398.87826   C 692.38038,399.71775 692.02059,401.07692 692.90006,401.63658   C 695.57844,403.35554 698.29679,401.43671 698.29679,401.43671   L 697.7771,398.67838   z "
     style="fill:#fc9290;fill-rule:evenodd;fill-opacity:1;stroke:none;" />
  <path
     id="path243"
     d="  M 704.37311,410.1914   C 706.81163,409.192 708.49061,408.19261 708.29073,407.31314   C 707.97093,406.07389 705.89219,396.43973 703.97335,387.52514   C 703.37371,386.36584 703.01393,385.68625 703.01393,385.68625   C 703.01393,385.68625 699.33616,404.15506 704.37311,410.1914   z "
     style="fill:#bed2fa;fill-rule:evenodd;fill-opacity:1;stroke:none;" />
  <path
     id="path245"
     d="  M 700.33555,372.85403   C 700.33555,372.85403 709.64991,375.01272 713.2877,390.84313   C 713.64749,392.40218 713.2877,394.04119 712.32829,395.24046   C 710.60933,397.27922 706.93156,400.27741 698.29679,401.39673   C 697.33737,401.51666 697.21744,398.87826 697.21744,398.87826   C 697.2974,399.11811 703.05391,394.80073 705.5324,392.48213   C 705.97214,392.08237 705.93216,391.20291 705.65233,390.64325   C 704.81284,389.28407 703.41369,386.84555 702.93398,385.64627   C 702.25439,383.84737 697.73713,373.69352 700.33555,372.85403   z "
     style="fill:#fc9290;fill-rule:evenodd;fill-opacity:1;stroke:none;" />
  <path
     id="path247"
     d="  M 700.53543,371.85463   C 700.53543,371.85463 706.01211,372.29437 710.44942,378.81042   C 710.44942,378.81042 708.97032,384.76681 701.89461,386.36584   C 701.89461,386.36584 697.49727,375.61236 700.53543,371.85463   z "
     style="fill:#010117;fill-rule:evenodd;fill-opacity:1;stroke:none;" />
  <path
     id="path249"
     d="  M 673.91157,435.21623   C 676.07026,440.89279 678.82859,446.08964 679.18837,446.76923   C 679.22835,446.80921 679.26832,446.80921 679.26832,446.80921   C 679.78801,446.80921 684.26529,446.72925 684.745,444.77044   C 684.745,444.77044 684.86493,437.93459 684.62508,432.49788   C 683.90551,433.25742 681.14718,435.49606 673.91157,435.21623   z "
     style="fill:#3a49cd;fill-rule:evenodd;fill-opacity:1;stroke:none;" />
  <path
     id="path251"
     d="  M 660.79952,439.01393   C 660.79952,439.01393 663.07813,441.01272 666.4361,441.01272   C 666.4361,441.01272 669.83404,436.85524 672.7123,432.85766   C 669.47426,431.29861 666.07632,427.90067 664.87704,426.66142   C 662.7983,432.57783 660.79952,439.01393 660.79952,439.01393   z "
     style="fill:#3a49cd;fill-rule:evenodd;fill-opacity:1;stroke:none;" />
  <path
     id="path253"
     d="  M 672.31254,454.16475   C 672.43247,454.76439 672.99213,455.16414 673.55179,455.04422   C 674.87099,454.72441 677.26953,454.16475 678.26893,453.76499   C 679.70806,453.20533 682.42641,451.40642 683.82556,450.84676   C 684.30527,450.64688 685.50454,450.1272 686.22411,449.80739   C 686.66384,449.60751 686.86372,449.1278 686.74379,448.64809   C 686.46396,447.72865 686.02423,446.08964 685.30466,444.73047   C 685.18474,444.49061 684.98486,444.29073 684.70503,444.17081   C 683.98546,444.81042 682.82617,445.52998 681.26711,445.52998   C 679.98789,445.52998 678.94852,445.21018 678.18898,444.81042   C 678.06905,445.0103 676.15021,449.32768 674.79104,449.88734   C 673.55179,450.36705 671.95276,451.68625 672.31254,454.16475   z "
     style="fill:#17135d;fill-rule:evenodd;fill-opacity:1;stroke:none;" />
  <path
     id="path255"
     d="  M 651.92489,439.01393   C 651.68504,439.57359 651.88492,440.29316 652.4046,440.57299   C 653.60388,441.25257 655.84252,442.45185 656.84191,442.85161   C 658.28104,443.37129 661.39915,443.851 662.87826,444.37068   C 663.35796,444.53059 664.55724,444.93035 665.35675,445.21018   C 665.79649,445.3301 666.23622,445.09025 666.39612,444.65051   C 666.71593,443.73107 667.23561,442.09207 667.47547,440.53301   C 667.51545,440.25318 667.43549,439.93337 667.35554,439.69352   C 666.39612,439.69352 665.07692,439.45366 663.83767,438.37432   C 662.83828,437.49485 662.19867,436.49546 661.79891,435.65597   C 661.59903,435.77589 657.68141,437.85463 656.28225,437.33495   C 655.043,436.85524 653.04422,436.81526 651.92489,439.01393   z "
     style="fill:#17135d;fill-rule:evenodd;fill-opacity:1;stroke:none;" />
  <path
     id="path257"
     d="  M 671.63295,430.49909   C 671.63295,430.49909 672.35251,434.9364 674.95094,437.01514   C 674.95094,437.01514 685.62447,435.37614 695.53846,432.61781   C 702.85403,430.57904 709.76984,427.94064 711.72865,424.86251   C 716.40581,417.54694 709.29013,408.67232 709.29013,408.67232   C 709.29013,408.67232 695.61841,415.94791 680.7874,424.86251   C 677.74924,426.70139 674.67111,428.58025 671.63295,430.49909   z "
     style="fill:#aa4b47;fill-rule:evenodd;fill-opacity:1;stroke:none;" />
  <path
     id="path259"
     d="  M 687.66323,437.01514   C 687.66323,437.01514 690.82132,437.29497 692.06057,438.5742   C 693.25984,439.8934 695.09873,443.65112 693.77953,445.1702   C 692.5003,446.6493 686.30406,443.37129 686.10418,442.85161   C 685.94428,442.29194 687.66323,437.01514 687.66323,437.01514   z "
     style="fill:#fc9290;fill-rule:evenodd;fill-opacity:1;stroke:none;" />
  <path
     id="path261"
     d="  M 671.63295,430.49909   C 671.63295,430.49909 672.35251,434.9364 674.95094,437.01514   C 674.95094,437.01514 685.62447,435.37614 695.53846,432.61781   C 690.8613,428.14052 684.78498,425.90188 680.74743,424.82253   C 677.70927,426.66142 674.67111,428.58025 671.63295,430.49909   z "
     style="fill:#9e332e;fill-rule:evenodd;fill-opacity:1;stroke:none;" />
  <path
     id="path263"
     d="  M 688.02302,435.65597   C 673.11205,423.78316 662.51847,419.46578 662.23864,419.50575   C 660.35978,410.83101 658.64082,397.39915 651.48516,376.85161   C 651.48516,376.85161 637.45366,377.09146 635.29497,382.60812   C 632.25681,390.56329 630.05815,416.26772 653.28407,432.89764   C 653.404,432.97759 653.5639,433.09752 653.7238,433.21744   C 653.76378,433.25742 653.84373,433.2974 653.92368,433.33737   L 653.92368,433.33737   C 661.07935,437.97456 686.82374,444.17081 686.82374,444.17081   C 689.58207,440.33313 688.02302,435.65597 688.02302,435.65597   z "
     style="fill:#aa4b47;fill-rule:evenodd;fill-opacity:1;stroke:none;" />
  <path
     id="path265"
     d="  M 735.59419,370.33555   C 735.51423,369.77589 734.31496,363.85948 726,364.89885   C 726,364.89885 730.1175,364.77892 731.1169,366.61781   C 731.1169,366.61781 727.99879,364.61902 725.8401,365.77832   C 723.68141,366.89764 722.96184,371.45488 723.12174,372.894   C 723.28165,374.29316 725.16051,378.73047 726.63961,378.89037   C 727.19927,378.93035 727.83889,378.81042 728.35857,378.61054   C 728.07874,379.3301 727.79891,380.08964 727.55906,380.96911   C 725.24046,388.88431 729.59782,395.60024 732.31617,394.36099   C 734.03513,393.60145 734.99455,396.83949 734.99455,396.83949   L 750.34525,378.61054   C 750.34525,378.61054 742.03028,365.1387 735.59419,370.33555   z "
     style="fill:#12123c;fill-rule:evenodd;fill-opacity:1;stroke:none;" />
  <path
     id="path267"
     d="  M 755.702,589.72259   L 751.9043,591.24167   C 751.9043,591.24167 735.59419,566.57662 733.5954,544.86978   C 733.23561,540.99213 733.35554,537.2344 734.11508,533.75651   C 734.11508,533.75651 733.95518,532.75712 733.67535,531.03816   C 733.55542,530.19867 733.39552,529.19927 733.19564,528.07995   C 732.67595,524.76196 731.95639,520.2447 731.1169,515.08783   C 729.19806,503.21502 726.71956,488.02423 724.76075,476.87099   L 725.80012,476.51121   L 736.75348,472.67353   L 738.99213,464.83828   L 747.18716,462.47971   C 747.18716,462.47971 748.98607,466.35736 750.62508,484.70624   C 750.94488,487.14476 751.22471,489.78316 751.42459,492.66142   C 752.02423,501.45609 752.10418,512.3295 750.62508,524.80194   C 750.26529,528 749.78558,531.27801 749.18595,534.67595   C 748.78619,537.15445 748.70624,540.51242 748.86614,544.39007   C 749.70563,562.13931 755.702,589.72259 755.702,589.72259   z "
     style="fill:#17135d;fill-rule:evenodd;fill-opacity:1;stroke:none;" />
  <path
     id="path269"
     d="  M 751.42459,492.70139   L 733.67535,531.11811   C 733.55542,530.27862 733.39552,529.27922 733.23561,528.1599   C 732.71593,524.84191 731.95639,520.32465 731.1169,515.1278   C 729.19806,503.255 726.71956,488.0642 724.76075,476.87099   L 725.80012,476.51121   L 736.75348,472.67353   L 739.0321,464.83828   L 747.18716,462.47971   C 747.18716,462.47971 749.02604,466.35736 750.66505,484.74621   C 750.94488,487.14476 751.22471,489.82314 751.42459,492.70139   z "
     style="fill:#0d0d38;fill-rule:evenodd;fill-opacity:1;stroke:none;" />
  <path
     id="path271"
     d="  M 743.66929,467.39673   C 743.66929,467.39673 743.62932,467.39673 743.62932,467.47668   C 743.58934,467.71654 743.38946,468.51605 743.14961,469.5954   C 741.99031,474.91217 739.11205,487.7444 738.91217,487.70442   C 737.35312,499.7771 734.95457,515.32768 732.03634,527.32041   C 730.47729,533.67656 728.75833,538.99334 726.91944,542.27135   C 726.27983,543.39067 725.56027,545.26953 724.8407,547.66808   C 720.60327,561.69958 715.36644,593.52029 715.36644,593.52029   L 712.9679,594.55966   C 712.9679,594.55966 703.77347,565.97698 711.72865,542.79104   C 712.52816,540.39249 713.52756,538.07389 714.72683,535.87523   C 714.88674,535.5954 714.96669,535.35554 714.92671,535.03574   L 714.92671,535.03574   C 714.80678,534.07632 714.56693,531.6378 714.2871,528.23985   C 713.44761,518.84555 712.68807,487.10478 712.24833,479.66929   C 712.08843,476.83101 712.16838,474.31254 712.44821,472.07389   C 712.9679,467.71654 714.1272,464.4785 715.24652,462.1599   C 716.64567,459.28165 718.04482,458.00242 718.04482,458.00242   C 718.04482,458.00242 736.35373,465.51787 743.22956,463.55906   L 743.66929,467.39673   z "
     style="fill:#17135d;fill-rule:evenodd;fill-opacity:1;stroke:none;" />
  <path
     id="path273"
     d="  M 743.62932,469.27559   C 743.46941,469.39552 743.30951,469.47547 743.14961,469.5954   C 736.83343,473.63295 714.64688,472.2338 712.44821,472.07389   C 712.9679,467.71654 714.08722,464.43852 715.20654,462.1599   C 724.72078,463.07935 740.43125,464.95821 743.62932,467.43671   C 744.34888,468.03634 744.42883,468.63598 743.62932,469.27559   z "
     style="fill:#0b0754;fill-rule:evenodd;fill-opacity:1;stroke:none;" />
  <path
     id="path275"
     d="  M 778.84797,461.04058   L 777.72865,464.6384   C 777.72865,464.6384 777.48879,464.59843 777.08904,464.51847   C 775.88976,464.15869 772.97153,463.39915 769.65354,462.31981   C 764.65657,460.80073 758.82011,458.64204 756.66142,456.52332   C 753.42338,453.36523 748.66626,444.73047 745.98789,436.45548   C 745.90793,436.2556 745.86796,436.05572 745.78801,435.89582   C 744.42883,431.49849 743.66929,427.26105 744.06905,424.10297   C 744.3089,422.18413 744.78861,420.5851 745.34827,419.22592   C 746.14779,417.42701 747.18716,416.06784 748.18655,415.10842   C 748.30648,414.94852 748.46638,414.78861 748.66626,414.66869   C 750.26529,413.18958 751.42459,412.19019 751.42459,412.19019   C 752.14416,412.03028 753.0636,413.06965 753.70321,414.06905   C 753.70321,414.06905 754.66263,416.14779 755.10236,417.58692   C 755.10236,417.62689 755.14234,417.66687 755.14234,417.70684   C 755.22229,417.98667 755.30224,418.34646 755.42217,418.70624   C 755.46214,418.78619 755.46214,418.86614 755.50212,418.94609   C 755.702,419.70563 755.8619,420.50515 756.06178,421.34464   C 758.14052,430.17929 759.73955,443.29134 762.17807,447.56875   C 763.21744,449.40763 768.7341,453.72502 773.09146,456.96305   C 776.24955,459.28165 778.84797,461.04058 778.84797,461.04058   z "
     style="fill:#fb8a82;fill-rule:evenodd;fill-opacity:1;stroke:none;" />
  <path
     id="path277"
     d="  M 749.58571,420.90491   C 747.62689,422.30406 745.10842,423.46336 742.03028,424.14294   C 730.39733,426.66142 726.23985,415.94791 724.76075,408.59237   C 726.35978,407.67293 727.87886,407.51302 728.71835,407.43307   C 729.55784,407.31314 730.43731,407.27317 731.15687,407.27317   C 732.47608,406.2338 734.51484,401.87644 735.15445,395.04058   L 735.67414,395.20048   L 744.70866,398.15869   C 744.70866,398.15869 744.18898,401.31678 743.90915,404.27498   C 743.70927,406.59358 743.62932,408.83222 744.02907,409.39188   C 744.74864,409.55179 745.14839,409.71169 745.14839,409.71169   C 745.14839,409.71169 745.14839,409.71169 745.14839,409.71169   C 745.26832,409.91157 747.7868,414.74864 749.58571,420.90491   z "
     style="fill:#fc9290;fill-rule:evenodd;fill-opacity:1;stroke:none;" />
  <path
     id="path279"
     d="  M 753.50333,428.74016   C 753.46336,428.98001 753.3834,429.25984 753.30345,429.53967   C 751.26469,436.93519 749.62568,466.59721 749.62568,466.59721   C 751.10478,471.63416 714.04724,471.2344 713.32768,466.51726   C 711.36887,461.72017 716.12598,452.7656 718.88431,448.24833   C 719.20412,447.6487 719.52392,447.04906 719.76378,446.44942   C 720.36342,444.89037 720.64325,443.17141 720.60327,441.45245   C 720.36342,434.69655 719.28407,428.46033 718.84434,424.62265   L 718.84434,424.62265   C 719.404,424.02302 719.96366,423.42338 720.48334,422.90369   C 721.28286,422.02423 721.96245,421.26469 722.44216,420.50515   C 722.96184,419.66566 723.28165,418.86614 723.2017,418.02665   C 723.16172,417.38704 723.04179,416.74743 722.92187,416.10781   C 722.84191,415.78801 722.76196,415.4682 722.68201,415.18837   C 721.80254,412.03028 720.16354,409.27196 720.16354,409.27196   C 723.12174,407.3931 728.75833,407.35312 728.75833,407.35312   C 728.75833,407.35312 728.7983,407.67293 728.87826,408.23259   C 729.15809,410.47123 729.91763,416.14779 730.71714,417.14718   C 731.71654,418.34646 747.34706,421.86432 747.90672,419.90551   C 748.42641,418.02665 745.18837,409.95154 745.06844,409.63174   C 745.06844,409.63174 745.06844,409.63174 745.06844,409.63174   C 750.34525,410.99091 752.34403,412.50999 752.34403,412.50999   C 749.62568,415.10842 754.94246,421.62447 753.50333,428.74016   z "
     style="fill:#17135d;fill-rule:evenodd;fill-opacity:1;stroke:none;" />
  <path
     id="path281"
     d="  M 744.70866,398.15869   C 744.70866,398.15869 744.22895,401.23683 743.94912,404.19503   C 738.83222,403.47547 736.59358,398.11872 735.75409,395.20048   L 744.70866,398.15869   z "
     style="fill:#fb8a82;fill-rule:evenodd;fill-opacity:1;stroke:none;" />
  <path
     id="path283"
     d="  M 746.06784,401.1169   C 746.06784,401.1169 733.9152,399.99758 734.63477,391.72259   C 735.39431,383.44761 734.35494,377.6911 742.15021,378.05088   C 749.94549,378.41066 751.14476,381.76863 751.50454,384.56693   C 751.86432,387.40521 749.2659,401.19685 746.06784,401.1169   z "
     style="fill:#fc9290;fill-rule:evenodd;fill-opacity:1;stroke:none;" />
  <path
     id="path285"
     d="  M 751.70442,380.00969   C 750.02544,377.33131 748.54634,377.73107 747.70684,378.41066   C 741.43065,373.69352 736.59358,379.09025 736.59358,379.09025   C 735.2344,384.92671 731.03695,387.88492 731.03695,387.88492   C 731.03695,387.88492 733.07571,389.60388 738.31254,388.72441   C 739.91157,388.44458 741.43065,387.40521 742.74985,386.08601   C 740.3513,389.64385 737.27317,392.0424 737.27317,392.0424   C 743.66929,389.64385 746.9473,380.68928 747.30709,379.72986   C 747.98667,380.52938 749.30588,382.24833 749.58571,383.84737   C 750.02544,386.00606 749.86554,390.36342 751.06481,390.32344   C 751.06481,390.32344 754.18292,384.04724 751.70442,380.00969   z "
     style="fill:#12123c;fill-rule:evenodd;fill-opacity:1;stroke:none;" />
  <path
     id="path287"
     d="  M 738.63234,458.44216   C 731.47668,459.48153 724.32102,452.32586 719.76378,446.40945   C 720.36342,444.85039 720.64325,443.17141 720.60327,441.45245   C 720.36342,434.65657 719.28407,428.46033 718.84434,424.62265   L 718.84434,424.62265   C 719.404,424.02302 719.96366,423.46336 720.48334,422.90369   C 721.28286,422.0642 721.96245,421.26469 722.44216,420.50515   C 729.75772,430.41914 748.38643,457.00303 738.63234,458.44216   z "
     style="fill:#0d0d38;fill-rule:evenodd;fill-opacity:1;stroke:none;" />
  <path
     id="path289"
     d="  M 763.69715,461.24046   L 764.97638,465.99758   C 764.97638,465.99758 761.77832,465.19806 759.77953,464.95821   C 759.17989,464.91823 758.82011,464.83828 758.82011,464.83828   C 757.22108,464.67838 755.30224,464.35857 753.18353,464.07874   L 753.14355,464.07874   C 749.54573,463.4791 745.50818,462.75954 742.07026,461.80012   C 739.67171,461.16051 737.553,460.40097 736.07389,459.56148   C 735.95397,459.48153 735.83404,459.40157 735.67414,459.28165   C 732.15627,456.96305 727.59903,449.60751 723.88128,441.61236   C 723.40157,440.49303 722.92187,439.41369 722.40218,438.33434   C 720.68322,434.29679 719.24409,430.29921 718.28468,426.8613   C 717.68504,424.78256 717.24531,422.90369 717.04543,421.34464   C 717.00545,420.78498 716.9255,420.26529 716.88552,419.74561   C 716.88552,419.46578 716.88552,419.18595 716.84555,418.90612   C 718.28468,417.54694 721.56269,415.02847 726,415.26832   C 726.11993,415.42823 726.19988,415.6281 726.27983,415.78801   C 728.23864,419.62568 730.31738,424.66263 732.31617,429.6596   C 733.43549,432.37795 734.47486,435.09631 735.55421,437.61478   C 736.15385,439.17383 736.75348,440.61296 737.31314,441.93216   C 738.39249,444.41066 739.35191,446.44942 740.15142,447.72865   C 740.67111,448.56814 742.07026,449.64749 743.90915,450.80678   C 747.06723,452.9255 751.70442,455.36402 755.702,457.40279   C 757.34101,458.2023 758.94004,458.96184 760.21926,459.60145   C 762.33798,460.60085 763.69715,461.24046 763.69715,461.24046   z "
     style="fill:#fb8a82;fill-rule:evenodd;fill-opacity:1;stroke:none;" />
  <path
     id="path291"
     d="  M 726.27983,415.82798   C 720.7232,414.70866 716.88552,419.66566 716.88552,419.66566   C 716.24591,410.83101 720.24349,409.23198 720.24349,409.23198   C 721.80254,408.35251 723.96124,411.23077 726.27983,415.82798   z "
     style="fill:#17135d;fill-rule:evenodd;fill-opacity:1;stroke:none;" />
  <path
     id="path293"
     d="  M 726.91944,596.55845   L 708.0109,596.55845   C 708.0109,596.55845 707.57117,593.48031 708.57056,591.12174   C 709.49001,588.84313 711.00909,587.80376 710.60933,585.0854   C 711.84858,586.4046 713.80739,587.92368 716.52574,587.52392   C 716.84555,588.08359 718.68443,591.24167 719.80376,592.12114   C 721.043,593.04058 726.51969,592.72078 726.91944,596.55845   z "
     style="fill:#0d0d38;fill-rule:evenodd;fill-opacity:1;stroke:none;" />
  <path
     id="path295"
     d="  M 767.4149,596.55845   L 748.46638,596.55845   C 748.46638,596.55845 747.7868,593.28044 749.02604,591.08177   C 750.10539,589.08298 749.66566,587.96366 748.86614,586.32465   C 749.74561,586.72441 750.82495,587.04422 752.0642,586.96426   C 752.98365,586.92429 754.02302,586.44458 754.90248,585.92489   C 755.702,586.92429 759.17989,591.2017 760.29921,592.08116   C 761.53846,593.04058 767.01514,592.6808 767.4149,596.55845   z "
     style="fill:#0d0d38;fill-rule:evenodd;fill-opacity:1;stroke:none;" />
  <path
     id="path297"
     d="  M 743.18958,396.43973   C 743.18958,396.43973 743.34949,397.51908 745.82798,397.51908   C 745.82798,397.51908 747.90672,397.51908 747.90672,396.35978   C 747.90672,396.35978 745.94791,395.36039 743.18958,396.43973   z "
     style="fill:#ffffff;fill-rule:evenodd;fill-opacity:1;stroke:none;" />
  <path
     id="path299"
     d="  M 806.71108,431.01878   C 805.91157,430.65899 804.91217,434.37674 804.31254,434.49667   C 803.7129,434.6166 803.95276,433.49727 803.3931,433.2974   C 802.87341,433.13749 802.63356,436.29558 803.03331,437.53483   C 803.47305,438.77408 803.3931,440.2132 803.3931,440.2132   C 803.3931,440.2132 799.7553,455.64385 798.99576,457.36281   C 798.19624,459.08177 785.36402,471.63416 785.36402,471.63416   L 788.2023,481.6281   C 788.2023,481.6281 803.31314,466.31738 804.59237,462.71956   C 805.87159,459.12174 806.43125,440.61296 806.43125,440.61296   C 806.43125,440.61296 807.59055,437.97456 807.83041,435.25621   C 808.07026,432.57783 807.5106,431.33858 806.71108,431.01878   z "
     style="fill:#fc9290;fill-rule:evenodd;fill-opacity:1;stroke:none;" />
  <path
     id="path301"
     d="  M 767.45488,470.59479   C 767.45488,470.59479 758.5003,457.96245 754.14294,454.00485   C 754.14294,454.00485 748.18655,437.97456 747.70684,436.93519   C 747.66687,436.89522 747.66687,436.81526 747.62689,436.77529   C 747.54694,436.41551 747.34706,435.05633 747.58692,433.85706   C 747.82677,432.41793 746.98728,428.94004 746.42762,429.21987   C 745.82798,429.57965 746.30769,430.77892 745.58813,430.73895   C 744.90854,430.73895 743.14961,426.82132 742.31012,427.38098   C 741.5106,427.90067 741.07087,429.41975 741.83041,432.33798   C 742.43004,434.7765 743.74924,437.09509 744.18898,437.77468   C 744.149,437.81466 744.10902,437.81466 744.10902,437.81466   C 744.10902,437.81466 746.30769,453.40521 748.62629,458.00242   C 750.90491,462.63961 758.06057,478.19019 763.13749,478.70987   C 768.17444,479.30951 767.45488,470.59479 767.45488,470.59479   z "
     style="fill:#fc9290;fill-rule:evenodd;fill-opacity:1;stroke:none;" />
  <path
     id="path303"
     d="  M 794.35857,589.36281   C 794.35857,589.36281 795.35796,591.56148 797.55663,592.08116   C 798.95578,592.44094 800.15506,593.24046 800.87462,594.39976   C 801.51423,595.35918 800.9146,596.71835 799.83525,596.71835   L 788.60206,596.71835   C 787.64264,596.71835 786.92308,595.79891 787.00303,594.71956   C 787.08298,593.80012 787.16293,592.6808 787.20291,591.84131   C 787.28286,590.0424 788.92187,588.56329 788.92187,588.56329   L 794.35857,589.36281   z "
     style="fill:#ed6966;fill-rule:evenodd;fill-opacity:1;stroke:none;" />
  <path
     id="path305"
     d="  M 794.67838,589.96245   C 794.67838,589.96245 791.92005,591.72138 787.32283,590.68201   C 787.32283,590.68201 779.44761,568.81526 779.00787,558.50151   C 778.9679,558.10176 778.9679,557.702 778.9679,557.34222   C 779.1278,547.6281 770.93277,522.44337 773.13144,517.28649   C 775.3301,512.12962 793.23925,519.60509 793.23925,519.60509   L 793.59903,537.15445   L 794.67838,589.96245   z "
     style="fill:#1c1860;fill-rule:evenodd;fill-opacity:1;stroke:none;" />
  <path
     id="path307"
     d="  M 793.59903,537.11448   L 779.00787,558.42156   C 778.9679,558.0218 778.9679,557.62205 778.9679,557.22229   C 779.1278,547.58813 770.93277,522.44337 773.13144,517.28649   C 775.37008,512.12962 793.23925,519.60509 793.23925,519.60509   L 793.59903,537.11448   z "
     style="fill:#12123c;fill-rule:evenodd;fill-opacity:1;stroke:none;" />
  <path
     id="path309"
     d="  M 765.01635,589.36281   C 765.01635,589.36281 766.05572,591.5215 768.29437,592.04119   C 769.69352,592.36099 770.89279,593.16051 771.65233,594.27983   C 772.29194,595.23925 771.69231,596.55845 770.61296,596.55845   L 759.25984,596.55845   C 758.26045,596.55845 757.50091,595.67898 757.62084,594.59964   C 757.70079,593.68019 757.78074,592.64082 757.82071,591.80133   C 757.90067,590.00242 759.53967,588.56329 759.53967,588.56329   L 765.01635,589.36281   z "
     style="fill:#ed6966;fill-rule:evenodd;fill-opacity:1;stroke:none;" />
  <path
     id="path311"
     d="  M 782.80557,519.96487   C 782.80557,519.96487 767.09509,584.24591 766.61538,590.52211   C 766.61538,590.52211 763.53725,592.24107 758.58025,589.20291   C 758.58025,589.20291 755.702,560.42035 758.58025,552.50515   C 761.45851,544.6699 757.98062,520.84434 765.33616,515.48758   C 772.6917,510.13083 782.80557,519.96487 782.80557,519.96487   z "
     style="fill:#1c1860;fill-rule:evenodd;fill-opacity:1;stroke:none;" />
  <path
     id="path313"
     d="  M 784.60448,469.11569   L 774.97032,474.47244   L 773.05148,467.15687   C 773.05148,467.15687 774.29073,464.6384 774.85039,460.48092   C 775.05027,458.76196 775.1702,456.7232 775.05027,454.48455   L 782.88552,458.88189   C 782.88552,458.88189 782.68565,459.68141 782.56572,460.8407   C 782.44579,462.11993 782.40581,463.79891 782.72562,465.43792   C 783.00545,466.83707 783.56511,468.15627 784.60448,469.11569   z "
     style="fill:#fc9290;fill-rule:evenodd;fill-opacity:1;stroke:none;" />
  <path
     id="path315"
     d="  M 792.71956,478.39007   C 792.75954,477.5106 797.59661,473.95276 797.59661,473.95276   C 798.63598,467.2768 794.75833,462.47971 794.75833,462.47971   L 788.92187,466.99697   C 787.80254,467.07692 787.28286,467.51666 787.28286,467.51666   C 786.32344,467.23683 783.44518,467.47668 783.44518,467.47668   C 783.48516,468.99576 783.12538,470.43489 780.68686,470.79467   C 777.44882,471.2344 774.53059,468.83586 773.09146,467.15687   C 773.09146,467.15687 771.09267,466.99697 768.61417,467.87644   C 768.61417,467.87644 767.45488,467.19685 766.17565,467.15687   L 761.41853,462.47971   C 761.41853,462.47971 755.82193,464.23864 754.94246,473.43307   C 754.94246,473.43307 761.21866,478.6699 761.65839,482.7874   L 761.65839,482.7874   L 761.81829,484.34646   L 762.4579,489.86311   L 763.49727,499.57723   L 760.33919,518.88552   C 760.29921,519.0854 760.29921,519.24531 760.29921,519.40521   C 760.29921,520.68443 761.09873,521.84373 762.298,522.16354   C 762.298,522.16354 762.57783,522.20351 763.05754,522.28346   C 766.45548,522.80315 780.16717,524.60206 790.92065,521.404   C 793.3192,520.68443 794.91823,518.16596 794.71835,515.44761   L 792.43973,484.26651   L 792.43973,484.26651   C 792.43973,484.26651 792.63961,479.26953 792.71956,478.39007   z "
     style="fill:#aa4b47;fill-rule:evenodd;fill-opacity:1;stroke:none;" />
  <path
     id="path317"
     d="  M 767.45488,507.69231   C 767.21502,514.44821 766.61538,520.12477 763.05754,522.28346   C 762.53786,522.20351 762.25803,522.16354 762.25803,522.16354   C 761.05875,521.84373 760.25924,520.68443 760.25924,519.40521   C 760.25924,519.24531 760.25924,519.0854 760.29921,518.88552   L 763.49727,499.57723   L 762.41793,489.90309   C 762.49788,489.70321 762.49788,489.62326 762.49788,489.62326   C 762.49788,489.62326 767.73471,499.05754 767.45488,507.69231   z "
     style="fill:#9e332e;fill-rule:evenodd;fill-opacity:1;stroke:none;" />
  <path
     id="path319"
     d="  M 782.80557,465.47789   C 778.28831,465.35796 774.89037,460.48092 774.89037,460.48092   L 782.64567,460.8407   C 782.52574,462.11993 782.44579,463.83889 782.80557,465.47789   z "
     style="fill:#fb8a82;fill-rule:evenodd;fill-opacity:1;stroke:none;" />
  <path
     id="path321"
     d="  M 784.88431,462.75954   C 784.88431,462.75954 775.92974,465.31799 772.85161,457.56269   C 769.53362,449.16778 773.17141,443.05148 776.20957,442.65173   C 782.24591,441.81224 785.76378,444.33071 786.84313,447.00909   C 787.8825,449.68746 789.80133,461.36039 784.88431,462.75954   z "
     style="fill:#fc9290;fill-rule:evenodd;fill-opacity:1;stroke:none;" />
  <path
     id="path323"
     d="  M 781.40642,458.32223   C 781.40642,458.32223 781.7662,459.32162 784.16475,458.76196   C 784.16475,458.76196 786.12356,458.28225 785.92368,457.16293   C 785.92368,457.16293 783.84494,456.64325 781.40642,458.32223   z "
     style="fill:#ffffff;fill-rule:evenodd;fill-opacity:1;stroke:none;" />
  <path
     id="path325"
     d="  M 774.49061,460.16111   C 774.49061,460.16111 773.45124,456.80315 773.57117,455.00424   C 773.57117,455.00424 771.25257,451.7662 772.61175,450.92671   C 773.97093,450.16717 774.69049,452.08601 775.0103,451.68625   C 775.3301,451.32647 775.80981,444.93035 777.44882,445.13022   C 779.08783,445.3301 785.20412,447.40884 787.8825,444.89037   C 790.56087,442.3719 784.04482,432.49788 773.09146,436.29558   C 762.09812,440.13325 764.33677,453.48516 774.49061,460.16111   z "
     style="fill:#12123c;fill-rule:evenodd;fill-opacity:1;stroke:none;" />
  <path
     id="path327"
     d="  M 767.5748,441.61236   C 767.5748,441.61236 767.09509,439.97335 767.65475,438.81405   C 767.65475,438.81405 767.65475,440.41308 768.21442,441.13265   C 768.77408,441.81224 767.5748,441.61236 767.5748,441.61236   z "
     style="fill:#12123c;fill-rule:evenodd;fill-opacity:1;stroke:none;" />
  <path
     id="path329"
     d="  M 767.85463,440.49303   C 767.85463,440.49303 766.53543,440.33313 765.89582,441.45245   C 765.89582,441.45245 766.85524,440.77286 767.81466,441.49243   L 767.85463,440.49303   z "
     style="fill:#12123c;fill-rule:evenodd;fill-opacity:1;stroke:none;" />
  <path
     id="path331"
     d="  M 763.6172,461.16051   C 763.6172,461.16051 769.17383,462.39976 769.65354,463.03937   C 770.13325,463.71896 773.65112,468.23622 772.05209,468.79588   C 770.41308,469.31557 767.69473,467.23683 766.81526,466.79709   C 765.9358,466.31738 764.85645,465.87765 764.85645,465.87765   L 763.6172,461.16051   z "
     style="fill:#fb8a82;fill-rule:evenodd;fill-opacity:1;stroke:none;" />
  <path
     id="path333"
     d="  M 893.61841,598.39733   L 291.14355,598.39733   C 290.70382,598.39733 290.30406,598.03755 290.30406,597.55784   L 290.30406,597.55784   C 290.30406,597.11811 290.70382,596.71835 291.14355,596.71835   L 893.61841,596.71835   C 894.05815,596.71835 894.41793,597.11811 894.41793,597.55784   L 894.41793,597.55784   C 894.41793,598.03755 894.05815,598.39733 893.61841,598.39733   z "
     style="fill:#0d0d38;fill-rule:evenodd;fill-opacity:1;stroke:none;" />
  <path
     id="path335"
     d="  M 138.49606,467.97638   L 143.33313,467.97638   L 143.33313,469.13568   L 137.17686,469.13568   L 137.17686,458.98183   L 138.49606,458.98183   L 138.49606,467.97638   z "
     style="fill:#ffffff;fill-rule:evenodd;fill-opacity:1;stroke:none;" />
  <path
     id="path337"
     d="  M 147.6705,462.53967   C 147.15082,462.53967 146.73107,462.71956 146.3513,463.09933   C 145.99152,463.49909 145.77165,463.99879 145.6917,464.69836   L 149.52938,464.69836   L 149.52938,464.59843   C 149.4894,463.95881 149.30951,463.43913 148.9897,463.07935   C 148.64991,462.71956 148.23016,462.53967 147.6705,462.53967   z  M 147.85039,469.29558   C 146.81102,469.29558 145.95154,468.95578 145.31193,468.29618   C 144.65233,467.6166 144.33253,466.71714 144.33253,465.59782   L 144.33253,465.35796   C 144.33253,464.61841 144.47244,463.93882 144.77226,463.35918   C 145.05209,462.77953 145.47184,462.31981 145.99152,461.98001   C 146.51121,461.66021 147.09085,461.48031 147.6705,461.48031   C 148.6699,461.48031 149.44942,461.80012 149.9891,462.45972   C 150.54876,463.09933 150.82859,464.01878 150.82859,465.21805   L 150.82859,465.75772   L 145.65173,465.75772   C 145.67171,466.49727 145.89158,467.09691 146.31133,467.55663   C 146.73107,468.01635 147.27075,468.25621 147.91036,468.25621   C 148.39007,468.25621 148.76984,468.13628 149.08964,467.95639   C 149.40945,467.79649 149.68928,467.53664 149.92913,467.23683   L 150.72865,467.83646   C 150.08904,468.79588 149.12962,469.29558 147.85039,469.29558  "
     style="fill:#ffffff;fill-rule:evenodd;fill-opacity:1;stroke:none;" />
  <path
     id="path339"
     d="  M 154.88613,468.17626   C 155.2659,468.17626 155.66566,468.07632 156.00545,467.85645   C 156.36523,467.63658 156.62508,467.37674 156.78498,467.03695   L 156.78498,465.49788   L 155.80557,465.49788   C 154.22653,465.49788 153.447,465.97759 153.447,466.87704   C 153.447,467.29679 153.56693,467.6166 153.84676,467.83646   C 154.1066,468.05633 154.46638,468.17626 154.88613,468.17626   z  M 157.00485,469.15566   C 156.90491,468.99576 156.86493,468.75591 156.80497,468.35615   C 156.22532,468.97577 155.52574,469.29558 154.68625,469.29558   C 153.9467,469.29558 153.34706,469.0957 152.88734,468.65597   C 152.40763,468.25621 152.16778,467.71654 152.16778,467.07692   C 152.16778,466.2974 152.4676,465.65778 153.06723,465.23804   C 153.64688,464.81829 154.46638,464.57844 155.54573,464.57844   L 156.78498,464.57844   L 156.78498,463.99879   C 156.78498,463.53907 156.66505,463.17929 156.40521,462.91944   C 156.12538,462.6596 155.72562,462.4997 155.22592,462.4997   C 154.7662,462.4997 154.36644,462.63961 154.06663,462.85948   C 153.74682,463.09933 153.6069,463.37916 153.6069,463.69897   L 152.32768,463.69897   C 152.32768,463.33919 152.4676,462.97941 152.72744,462.61962   C 152.98728,462.25984 153.34706,462 153.7868,461.78013   C 154.24652,461.58025 154.74621,461.48031 155.28589,461.48031   C 156.14537,461.48031 156.82495,461.68019 157.30466,462.13992   C 157.80436,462.55966 158.04422,463.1593 158.0642,463.91884   L 158.0642,467.39673   C 158.0642,468.09631 158.14416,468.63598 158.32405,469.03574   L 158.32405,469.15566   L 157.00485,469.15566  "
     style="fill:#ffffff;fill-rule:evenodd;fill-opacity:1;stroke:none;" />
  <path
     id="path341"
     d="  M 163.82071,462.77953   C 163.62084,462.73955 163.40097,462.71956 163.1811,462.71956   C 162.32162,462.71956 161.76196,463.07935 161.44216,463.79891   L 161.44216,469.13568   L 160.16293,469.13568   L 160.16293,461.62023   L 161.42217,461.62023   L 161.42217,462.47971   C 161.8619,461.82011 162.48153,461.48031 163.24107,461.48031   C 163.50091,461.48031 163.70079,461.52029 163.82071,461.58025   L 163.82071,462.77953   z "
     style="fill:#ffffff;fill-rule:evenodd;fill-opacity:1;stroke:none;" />
  <path
     id="path343"
     d="  M 166.23925,461.62023   L 166.25924,462.55966   C 166.83889,461.8401 167.61841,461.48031 168.55784,461.48031   C 170.15687,461.48031 170.95639,462.37977 170.97638,464.15869   L 170.97638,469.13568   L 169.67717,469.13568   L 169.67717,464.15869   C 169.67717,463.61902 169.53725,463.21926 169.31738,462.95942   C 169.05754,462.69958 168.67777,462.57965 168.15809,462.57965   C 167.71835,462.57965 167.35857,462.67959 167.03876,462.89945   C 166.71896,463.11932 166.4791,463.41914 166.29921,463.77892   L 166.29921,469.13568   L 164.98001,469.13568   L 164.98001,461.62023   L 166.23925,461.62023   z "
     style="fill:#ffffff;fill-rule:evenodd;fill-opacity:1;stroke:none;" />
  <path
     id="path345"
     d="  M 178.47184,458.98183   L 181.80981,467.29679   L 185.14779,458.98183   L 186.96669,458.98183   L 186.96669,469.13568   L 185.64749,469.13568   L 185.64749,465.1381   L 185.64749,460.80073   L 182.30951,469.13568   L 181.31012,469.13568   L 177.97214,460.80073   L 178.15203,465.1381   L 178.15203,469.13568   L 176.81284,469.13568   L 176.81284,458.98183   L 178.47184,458.98183   z "
     style="fill:#ffffff;fill-rule:evenodd;fill-opacity:1;stroke:none;" />
  <path
     id="path347"
     d="  M 190.10478,465.47789   C 190.10478,466.31738 190.30466,466.97698 190.66445,467.47668   C 191.0642,467.97638 191.5639,468.25621 192.2235,468.25621   C 192.86311,468.25621 193.40279,467.97638 193.76257,467.45669   C 194.16233,466.97698 194.3622,466.23743 194.3622,465.31799   C 194.3622,464.49849 194.16233,463.8189 193.76257,463.3192   C 193.3828,462.79952 192.84313,462.53967 192.20351,462.53967   C 191.5639,462.53967 191.08419,462.79952 190.68443,463.29921   C 190.30466,463.8189 190.10478,464.51847 190.10478,465.47789   z  M 188.80557,465.31799   C 188.80557,464.57844 188.94549,463.91884 189.24531,463.33919   C 189.52514,462.73955 189.94488,462.27983 190.46457,461.96002   C 190.96426,461.64022 191.5639,461.48031 192.20351,461.48031   C 193.24288,461.48031 194.06239,461.8401 194.702,462.53967   C 195.32162,463.25924 195.64143,464.19867 195.64143,465.37795   L 195.64143,465.47789   C 195.64143,466.19746 195.50151,466.85706 195.2017,467.45669   C 194.94185,468.03634 194.5421,468.47608 194.02241,468.79588   C 193.48274,469.11569 192.90309,469.29558 192.2235,469.29558   C 191.20412,469.29558 190.38462,468.95578 189.76499,468.23622   C 189.12538,467.51666 188.80557,466.57723 188.80557,465.41793   L 188.80557,465.31799  "
     style="fill:#ffffff;fill-rule:evenodd;fill-opacity:1;stroke:none;" />
  <path
     id="path349"
     d="  M 200.95821,462.77953   C 200.75833,462.73955 200.55845,462.71956 200.31859,462.71956   C 199.4791,462.71956 198.89945,463.07935 198.59964,463.79891   L 198.59964,469.13568   L 197.30042,469.13568   L 197.30042,461.62023   L 198.55966,461.62023   L 198.57965,462.47971   C 198.99939,461.82011 199.59903,461.48031 200.39855,461.48031   C 200.6384,461.48031 200.83828,461.52029 200.95821,461.58025   L 200.95821,462.77953   z "
     style="fill:#ffffff;fill-rule:evenodd;fill-opacity:1;stroke:none;" />
  <path
     id="path351"
     d="  M 205.05572,462.53967   C 204.53604,462.53967 204.11629,462.71956 203.75651,463.09933   C 203.41672,463.49909 203.19685,463.99879 203.09691,464.69836   L 206.85463,464.69836   L 206.85463,464.59843   C 206.81466,463.95881 206.63477,463.43913 206.31496,463.07935   C 206.01514,462.71956 205.57541,462.53967 205.05572,462.53967   z  M 205.21563,469.29558   C 204.19624,469.29558 203.37674,468.95578 202.73713,468.29618   C 202.09752,467.6166 201.7977,466.71714 201.7977,465.59782   L 201.7977,465.35796   C 201.7977,464.61841 201.93761,463.93882 202.21744,463.35918   C 202.49727,462.77953 202.89703,462.31981 203.41672,461.98001   C 203.89643,461.66021 204.47608,461.48031 205.05572,461.48031   C 206.01514,461.48031 206.77468,461.80012 207.31435,462.45972   C 207.85403,463.09933 208.13386,464.01878 208.13386,465.21805   L 208.13386,465.75772   L 203.07692,465.75772   C 203.09691,466.49727 203.29679,467.09691 203.71654,467.55663   C 204.13628,468.01635 204.63598,468.25621 205.27559,468.25621   C 205.73531,468.25621 206.11508,468.13628 206.43489,467.95639   C 206.75469,467.79649 207.01454,467.53664 207.2344,467.23683   L 208.03392,467.83646   C 207.39431,468.79588 206.47486,469.29558 205.21563,469.29558  "
     style="fill:#ffffff;fill-rule:evenodd;fill-opacity:1;stroke:none;" />
</svg>
